<svg version="1.1" viewBox="0.0 0.0 960.0 540.0" fill="none" stroke="none" stroke-linecap="square" stroke-miterlimit="10" xmlns:xlink="http://www.w3.org/1999/xlink" xmlns="http://www.w3.org/2000/svg"><clipPath id="g26ebf61d7b4_0_537.0"><path d="m0 0l960.0 0l0 540.0l-960.0 0l0 -540.0z" clip-rule="nonzero"/></clipPath><g clip-path="url(#g26ebf61d7b4_0_537.0)"><path fill="#f3f3f3" d="m0 0l960.0 0l0 540.0l-960.0 0z" fill-rule="evenodd"/><path fill="#887c62" fill-opacity="0.067" d="m253.4788 -347.0466c-2.6310883 -0.6343689 -5.246582 -1.2431946 -7.8826294 -1.8569946c-5.87883 -1.4173889 -11.978088 -2.8226929 -18.226196 -4.242096c-77.687805 -17.9693 -174.71535 -37.817352 -244.94696 3.4099731c-46.746193 27.444916 -68.814575 95.79233 -91.14756 141.78194c-29.375656 60.495544 -56.38655 122.27901 -75.486206 186.88336c-25.761734 87.18442 5.130356 138.307 87.40127 170.73593c72.00061 28.38675 144.15137 56.331177 218.05148 79.45557c30.851357 9.6132965 62.87066 21.509201 95.43038 29.35936c26.680878 6.43277 53.733856 10.149445 80.75543 7.6815186c60.9357 -5.557892 97.30463 -52.83972 120.87262 -105.665665c29.45636 -66.1529 52.42334 -134.97968 79.49237 -202.05617c23.613983 -58.339394 35.46756 -127.17032 -8.66864 -179.2023c-59.023468 -69.671936 -148.71667 -105.3259 -235.64537 -126.284424z" fill-rule="evenodd"/><path fill="#e7e2d6" fill-opacity="0.4637" d="m1044.7142 -102.83488c22.03003 -4.214325 44.07141 -5.209526 60.815186 5.3248672c24.52124 15.439583 35.82251 47.522205 46.191406 73.073044c14.246094 35.196503 -39.809082 53.8629 -89.37207 64.147064c-2.84021 0.5928917 -5.6763916 1.1552658 -8.468384 1.689373c-26.92566 5.1508408 -51.202087 7.8819313 -60.573914 9.615284c-23.407593 4.3192444 -46.798706 8.724545 -70.177 13.196777c-60.496765 11.572929 -120.90161 23.574303 -181.31561 35.527878c-0.3729248 0.07133484 -0.73443604 0.15039825 -1.1073608 0.22174072c-4.178467 0.79933167 -8.576538 1.3829803 -12.457336 -0.3029709c-3.6202393 -1.5673065 -6.135254 -4.9219666 -8.401123 -8.165718c-15.154175 -21.60247 -35.147583 -49.22725 -33.914124 -77.027336c1.7265625 -39.937004 53.600098 -52.080524 94.3233 -59.870808c5.1346436 -0.9822426 10.093079 -1.9010506 14.759155 -2.7936668c6.215088 -1.1889381 11.893311 -2.3346405 16.743591 -3.5598373c49.09143 -12.334854 98.508484 -22.967728 148.2005 -32.473732c9.580811 -1.8327942 19.159363 -3.6255112 28.766174 -5.374077c0.40161133 -0.076828 0.80322266 -0.15364838 1.2143555 -0.2322998c15.786316 -3.019905 35.276917 -9.265968 54.773254 -12.995575z" fill-rule="evenodd"/><path fill="#e7e2d6" fill-opacity="0.4637" d="m611.3008 234.98001c-31.112244 0 -64.08301 8.220367 -97.31293 29.52182c-145.82199 93.524414 -183.60883 182.67957 -183.60883 182.67957c0 0 -4.941162 59.91031 -69.75687 59.91031c-2.6537476 0 -5.4147186 -0.10723877 -8.273972 -0.31274414c-9.578506 -0.7058716 -18.799606 -1.0454102 -27.600754 -1.0454102c-57.926697 0 -97.54525 14.501801 -101.76265 33.024384c-4.824997 21.310364 41.19113 82.35547 96.42836 106.56976c46.3378 20.336487 111.76111 67.255066 174.83447 67.255066c12.116089 0 24.142853 -1.7334595 35.928345 -5.7095947c73.170105 -24.71466 449.14423 29.066101 460.76886 -132.27625c11.633606 -161.34238 -90.12012 -245.1543 -90.12012 -245.1543c0 0 -84.06207 -94.462616 -189.52393 -94.462616z" fill-rule="evenodd"/><path fill="#e2b0a6" fill-opacity="0.3352" d="m307.51013 791.0182c56.097412 -36.357117 5.709564 -104.26233 52.791412 -171.94391c57.03482 -81.996216 -127.10292 -48.84662 -151.17198 -168.72757c-21.065216 -104.958984 -159.37485 -194.52206 -210.70369 -161.2555c-7.291477 4.725647 -12.83137 11.930817 -16.021555 21.918701c-7.792656 24.35315 -18.770872 36.552948 -30.35578 44.061188c-12.931202 8.380798 -26.62241 10.916351 -37.48892 17.959015c-11.511368 7.4605713 -19.86306 19.98236 -20.783432 49.882294c-8.638626 280.35077 -49.30909 313.69 -49.30909 313.69c49.721443 149.62048 277.58487 99.13684 411.20764 72.95734c23.33165 -4.5664062 39.967667 -10.849976 51.835403 -18.541565z" fill-rule="evenodd"/><path fill="#e2b0a6" fill-opacity="0.2588" d="m1018.2737 -14.947277c-96.91046 0 -298.3709 87.20242 -299.8935 91.048996c-32.16101 81.33906 -22.691711 217.53192 39.45337 287.1042c11.058655 12.381165 30.39801 17.603424 54.879395 17.603424c113.05774 0 335.9544 -111.44385 361.10358 -144.05962c30.585083 -39.721252 -49.804077 -225.0915 -128.01636 -248.38466c-7.6795654 -2.283905 -16.988647 -3.3123302 -27.52649 -3.3123302z" fill-rule="evenodd"/><path fill="#ac9078" fill-opacity="0.1285" d="m188.93694 436.75043c-22.03012 -4.214325 -44.071426 -5.2095337 -60.81526 5.3248596c-24.521194 15.439575 -35.822487 47.522217 -46.19143 73.07303c-14.246017 35.196533 39.809113 53.862915 89.37212 64.147095c2.8402405 0.5928955 5.676407 1.1552734 8.468414 1.689331c26.92569 5.150879 51.202026 7.881958 60.5739 9.615295c23.407578 4.319275 46.79869 8.724548 70.17699 13.196777c60.496735 11.572937 120.90161 23.57434 181.31564 35.527893c0.3728943 0.0713501 0.7344055 0.15039062 1.1073303 0.22174072c4.1784363 0.7993164 8.576569 1.3829956 12.457336 -0.30297852c3.6202087 -1.5673218 6.135254 -4.921936 8.401123 -8.16571c15.154175 -21.602478 35.147583 -49.227234 33.914124 -77.02734c-1.7265625 -39.93701 -53.60013 -52.080505 -94.3233 -59.87079c-5.1346436 -0.9822693 -10.093079 -1.901062 -14.759186 -2.7936707c-6.215088 -1.1889343 -11.893311 -2.3346558 -16.74356 -3.559845c-49.09143 -12.334869 -98.50845 -22.967743 -148.2005 -32.473724c-9.580811 -1.8327942 -19.159363 -3.6255188 -28.76619 -5.3740845c-0.4015808 -0.076812744 -0.8031769 -0.153656 -1.214325 -0.2322998c-15.786346 -3.0198975 -35.276962 -9.265961 -54.773224 -12.995575z" fill-rule="evenodd"/><path fill="#000000" fill-opacity="0.0" d="m1277.5756 73.638954c0 0 -146.78223 106.26519 -221.55518 104.37907c-88.57831 -2.2544556 -174.15479 -173.44756 -365.37335 -124.68274c-191.17853 48.779987 -255.86133 -34.71888 -218.90317 -171.71222" fill-rule="evenodd"/><path stroke="#e2b0a6" stroke-width="3.0" stroke-miterlimit="3.2535" stroke-linecap="butt" d="m1277.5756 73.638954c0 0 -146.78223 106.26519 -221.55518 104.37907c-88.57831 -2.2544556 -174.15479 -173.44756 -365.37335 -124.68274c-191.17853 48.779987 -255.86133 -34.71888 -218.90317 -171.71222" fill-rule="evenodd"/><path fill="#000000" fill-opacity="0.0" d="m-669.32043 388.08102c0 0 146.78217 -106.2652 221.5552 -104.37906c88.57825 2.2544556 174.15472 173.44754 365.37332 124.68274c191.1785 -48.78 255.86131 34.718872 218.90315 171.71222" fill-rule="evenodd"/><path stroke="#e2b0a6" stroke-width="3.0" stroke-miterlimit="3.2535" stroke-linecap="butt" d="m-669.32043 388.08102c0 0 146.78217 -106.2652 221.5552 -104.37906c88.57825 2.2544556 174.15472 173.44754 365.37332 124.68274c191.1785 -48.78 255.86131 34.718872 218.90315 171.71222" fill-rule="evenodd"/><path fill="#000000" fill-opacity="0.0" d="m70.48819 180.7769l808.1575 0l0 167.77953l-808.1575 0z" fill-rule="evenodd"/><path fill="#1e1e1e" d="m292.68127 209.70291l-20.625 0l0 59.34375l-7.578125 0l0 -59.34375l-20.640625 0l0 -6.921875l48.84375 0l0 6.921875zm15.805725 38.890625l0 -19.875l-8.234375 0l0 -7.0l8.234375 0l0 -18.9375l7.484375 0l0 18.9375l8.328125 0l0 7.0l-8.328125 0l0 19.875q0 6.0625 0.421875 8.859375q0.421875 2.796875 1.75 3.5625q1.328125 0.75 3.890625 0.84375l2.359375 0l0 7.46875l-2.078125 0q-4.359375 0 -7.109375 -0.796875q-2.734375 -0.8125 -4.203125 -2.984375q-1.46875 -2.171875 -2.0 -6.234375q-0.515625 -4.078125 -0.515625 -10.71875zm64.566376 20.453125l-7.484375 0l0 -4.921875q-1.890625 2.84375 -5.390625 4.265625q-3.5 1.40625 -7.671875 1.546875q-4.15625 0.15625 -8.140625 -1.03125q-3.96875 -1.1875 -6.71875 -3.640625q-2.84375 -2.46875 -4.40625 -6.25q-1.5625 -3.78125 -1.5625 -8.703125l0 -28.59375l7.578125 0l0 28.59375q0 6.53125 3.734375 9.5625q3.75 3.015625 9.609375 3.015625q2.9375 0 5.921875 -1.3125q2.984375 -1.328125 5.015625 -4.125q2.03125 -2.796875 2.03125 -7.140625l0 -28.59375l7.484375 0l0 47.328125zm9.461975 0l0 -66.265625l7.578125 0l0 34.75l15.703125 -15.15625l10.421875 0l-19.5 19.3125l20.4375 27.359375l-8.703125 0l-17.515625 -22.25l-0.84375 1.515625l0 20.734375l-7.578125 0zm79.13257 0l0 -66.265625l24.796875 0q4.921875 0 8.65625 2.375q3.75 2.359375 5.875 6.390625q2.125 4.015625 2.125 8.9375q0 3.890625 -1.328125 7.015625q-1.3125 3.109375 -4.15625 6.625q4.546875 3.015625 6.671875 7.046875q2.125 4.015625 2.125 8.65625q0 3.5 -1.328125 6.96875q-1.3125 3.453125 -3.6875 6.203125q-2.359375 2.734375 -5.4375 4.390625q-3.078125 1.65625 -6.484375 1.65625l-27.828125 0zm7.578125 -36.734375l16.9375 0q2.546875 0 4.625 -1.75q2.09375 -1.75 3.375 -4.4375q1.28125 -2.703125 1.28125 -5.640625q0 -4.15625 -2.421875 -7.140625q-2.40625 -2.984375 -6.578125 -2.984375l-17.21875 0l0 21.953125zm0 29.15625l20.25 0q2.65625 0 4.734375 -1.796875q2.078125 -1.796875 3.3125 -4.4375q1.234375 -2.65625 1.234375 -5.40625q0 -4.15625 -2.46875 -7.234375q-2.453125 -3.078125 -6.53125 -3.078125l-20.53125 0l0 21.953125zm86.13522 7.578125l-7.484375 0l0 -4.921875q-1.890625 2.84375 -5.390625 4.265625q-3.5 1.40625 -7.671875 1.546875q-4.15625 0.15625 -8.140625 -1.03125q-3.96875 -1.1875 -6.71875 -3.640625q-2.84375 -2.46875 -4.40625 -6.25q-1.5625 -3.78125 -1.5625 -8.703125l0 -28.59375l7.578125 0l0 28.59375q0 6.53125 3.734375 9.5625q3.75 3.015625 9.609375 3.015625q2.9375 0 5.921875 -1.3125q2.984375 -1.328125 5.015625 -4.125q2.03125 -2.796875 2.03125 -7.140625l0 -28.59375l7.484375 0l0 47.328125zm26.024475 -0.09375q-5.671875 -0.65625 -9.609375 -3.96875q-3.921875 -3.328125 -5.921875 -8.484375q-1.984375 -5.15625 -1.984375 -11.59375q0 -6.90625 2.5 -12.25q2.515625 -5.359375 7.296875 -8.421875q4.78125 -3.078125 11.59375 -3.078125q2.75 0 5.734375 0.375q2.984375 0.375 6.484375 2.171875l0 -20.921875l7.46875 0l0 66.265625l-7.46875 0l0 -4.453125q-2.65625 2.28125 -7.015625 3.703125q-4.34375 1.40625 -9.078125 0.65625zm16.09375 -10.703125l0 -27.4375q-6.8125 -2.84375 -12.734375 -2.171875q-5.921875 0.65625 -9.609375 4.78125q-3.6875 4.109375 -3.6875 11.484375q0 5.96875 2.21875 10.0q2.234375 4.015625 6.015625 5.90625q3.78125 1.890625 8.375 1.328125q4.59375 -0.578125 9.421875 -3.890625zm33.506104 10.703125q-5.671875 -0.65625 -9.609375 -3.96875q-3.921875 -3.328125 -5.921875 -8.484375q-1.984375 -5.15625 -1.984375 -11.59375q0 -6.90625 2.5 -12.25q2.515625 -5.359375 7.296875 -8.421875q4.78125 -3.078125 11.59375 -3.078125q2.75 0 5.734375 0.375q2.984375 0.375 6.484375 2.171875l0 -20.921875l7.46875 0l0 66.265625l-7.46875 0l0 -4.453125q-2.65625 2.28125 -7.015625 3.703125q-4.34375 1.40625 -9.078125 0.65625zm16.09375 -10.703125l0 -27.4375q-6.8125 -2.84375 -12.734375 -2.171875q-5.921875 0.65625 -9.609375 4.78125q-3.6875 4.109375 -3.6875 11.484375q0 5.96875 2.21875 10.0q2.234375 4.015625 6.015625 5.90625q3.78125 1.890625 8.375 1.328125q4.59375 -0.578125 9.421875 -3.890625zm21.019043 27.078125l0 -7.390625q2.734375 0 5.09375 -1.1875q2.375 -1.171875 3.984375 -3.109375q1.609375 -1.9375 1.890625 -4.3125l-17.890625 -47.609375l8.234375 0l14.203125 38.53125l13.34375 -38.53125l8.328125 0l-16.65625 44.578125q-2.078125 5.875 -4.640625 10.078125q-2.546875 4.21875 -6.296875 6.53125q-3.734375 2.328125 -9.59375 2.421875z" fill-rule="nonzero"/><path fill="#664b34" d="m332.5161 327.8098q0 2.25 -0.8125 4.203125q-0.8125 1.9375 -2.25 3.421875q-1.4375 1.484375 -3.34375 2.328125q-1.890625 0.84375 -4.109375 0.84375l-6.25 0l0 -21.546875l6.25 0q2.21875 0 4.125 0.84375q1.921875 0.84375 3.359375 2.328125q1.4375 1.484375 2.234375 3.4375q0.796875 1.9375 0.796875 4.140625zm-2.484375 0q0 -2.328125 -1.0625 -4.21875q-1.046875 -1.90625 -2.859375 -3.03125q-1.8125 -1.140625 -4.109375 -1.140625l-3.796875 0l0 16.796875l3.796875 0q2.296875 0 4.109375 -1.140625q1.8125 -1.15625 2.859375 -3.0625q1.0625 -1.921875 1.0625 -4.203125zm16.840607 10.796875l-11.59375 0l0 -21.453125l11.59375 0l0 2.203125l-9.171875 0l0 7.6875l7.421875 0l0 2.09375l-7.421875 0l0 7.265625l9.171875 0l0 2.203125zm9.597168 0.28125q-2.03125 0 -3.953125 -0.796875q-1.90625 -0.796875 -3.203125 -1.96875l1.875 -1.71875q1.140625 0.921875 2.546875 1.46875q1.40625 0.53125 2.671875 0.53125q1.25 0 2.3125 -0.484375q1.0625 -0.5 1.703125 -1.375q0.640625 -0.875 0.671875 -2.03125q0.03125 -1.484375 -1.046875 -2.359375q-1.0625 -0.890625 -3.3125 -1.453125q-2.171875 -0.546875 -3.796875 -1.359375q-1.625 -0.8125 -2.484375 -2.0625q-0.859375 -1.265625 -0.703125 -3.140625q0.21875 -2.484375 2.0625 -3.8125q1.859375 -1.328125 4.890625 -1.328125q1.46875 0 3.109375 0.359375q1.640625 0.34375 3.09375 1.171875l-1.625 1.953125q-1.078125 -0.453125 -2.21875 -0.734375q-1.125 -0.296875 -2.296875 -0.328125q-1.125 0 -2.15625 0.296875q-1.03125 0.28125 -1.671875 0.9375q-0.640625 0.65625 -0.671875 1.765625q0 1.140625 0.609375 1.828125q0.609375 0.6875 1.65625 1.125q1.046875 0.421875 2.328125 0.78125q2.171875 0.59375 3.65625 1.296875q1.5 0.703125 2.265625 1.875q0.765625 1.15625 0.765625 3.1875q0 1.796875 -0.96875 3.25q-0.96875 1.4375 -2.578125 2.28125q-1.609375 0.84375 -3.53125 0.84375zm23.904572 -0.28125l-2.421875 0l0 -21.453125l2.421875 0l0 21.453125zm19.128113 0l-3.375 0l-10.265625 -18.671875l0 18.640625l-2.421875 0l0 -21.453125l3.5625 0l10.078125 18.453125l0 -18.453125l2.421875 0l0 21.484375zm18.707672 -21.453125l-6.6875 21.453125l-2.578125 0l-6.6875 -21.453125l2.515625 0l5.46875 18.328125l5.453125 -18.328125l2.515625 0zm20.543213 21.453125l-2.421875 0l0 -18.734375l-2.40625 2.390625l-1.625 -1.625l3.5625 -3.484375l2.890625 0l0 21.453125zm18.39035 -3.125q-1.140625 1.5 -2.859375 2.390625q-1.71875 0.890625 -4.015625 0.890625q-2.359375 0 -4.046875 -0.890625q-1.6875 -0.890625 -2.8125 -2.390625q-1.109375 -1.5 -1.671875 -3.453125q-0.546875 -1.96875 -0.546875 -4.15625q0 -2.171875 0.546875 -4.140625q0.5625 -1.984375 1.703125 -3.484375q1.09375 -1.46875 2.8125 -2.359375q1.71875 -0.890625 4.015625 -0.890625q2.296875 0 4.015625 0.90625q1.71875 0.90625 2.859375 2.40625q1.125 1.5 1.65625 3.46875q0.546875 1.953125 0.546875 4.09375q0 2.1875 -0.5625 4.140625q-0.546875 1.9375 -1.640625 3.46875zm-1.84375 -13.546875q-0.796875 -1.140625 -2.0625 -1.78125q-1.25 -0.640625 -2.96875 -0.640625q-1.75 0 -3.0 0.640625q-1.25 0.640625 -2.046875 1.78125q-0.828125 1.15625 -1.203125 2.6875q-0.375 1.53125 -0.375 3.25q0 1.71875 0.375 3.25q0.375 1.53125 1.171875 2.703125q0.828125 1.140625 2.078125 1.8125q1.25 0.671875 3.0 0.671875q1.71875 0 2.96875 -0.671875q1.265625 -0.671875 2.0625 -1.8125q0.828125 -1.171875 1.1875 -2.703125q0.375 -1.53125 0.375 -3.25q0.03125 -1.71875 -0.359375 -3.25q-0.375 -1.53125 -1.203125 -2.6875z" fill-rule="nonzero"/><path fill="#887c62" d="m485.25327 319.4817l-9.078125 0l0 7.46875l7.328125 0l0 2.21875l-7.328125 0l0 9.4375l-2.421875 0l0 -21.453125l11.5 0l0 2.328125zm4.380188 1.78125q-0.671875 0 -1.15625 -0.46875q-0.46875 -0.484375 -0.46875 -1.15625q0 -0.6875 0.46875 -1.15625q0.484375 -0.46875 1.15625 -0.46875q0.671875 0 1.140625 0.46875q0.484375 0.46875 0.484375 1.15625q0 0.671875 -0.484375 1.15625q-0.46875 0.46875 -1.140625 0.46875zm1.171875 17.34375l-2.3125 0l0 -15.328125l2.3125 0l0 15.328125zm16.940216 0l-2.421875 0l0 -9.109375q0 -1.46875 -0.625 -2.359375q-0.625 -0.890625 -1.59375 -1.265625q-0.96875 -0.390625 -2.0 -0.390625q-1.015625 0 -2.015625 0.4375q-1.0 0.421875 -1.671875 1.3125q-0.671875 0.890625 -0.671875 2.265625l0 9.109375l-2.421875 0l0 -15.328125l2.421875 0l0 1.65625q0.703125 -0.953125 1.921875 -1.390625q1.234375 -0.453125 2.5625 -0.453125q1.765625 0 3.25 0.734375q1.5 0.734375 2.375 2.171875q0.890625 1.421875 0.890625 3.5l0 9.109375zm7.4833984 0.15625q-2.140625 -0.0625 -3.5937195 -1.203125q-1.4375 -1.15625 -1.4375 -3.375q0 -2.296875 1.34375 -3.59375q1.3593445 -1.296875 3.6874695 -1.671875q2.328125 -0.375 5.21875 0.15625l0 -1.109375q0 -1.0625 -0.6875 -1.6875q-0.671875 -0.640625 -1.734375 -0.84375q-1.046875 -0.21875 -2.203125 -0.046875q-1.140625 0.15625 -2.15625 0.703125q-1.015625 0.53125 -1.5625 1.390625l-1.4999695 -1.59375q0.953125 -1.171875 2.3124695 -1.8125q1.359375 -0.640625 2.828125 -0.828125q1.484375 -0.1875 2.859375 0.09375q1.375 0.28125 2.421875 1.015625q1.015625 0.609375 1.390625 1.578125q0.390625 0.96875 0.453125 2.21875q0.0625 1.25 0.0625 2.703125l0 7.75l-2.453125 0l0 -1.4375q-1.140625 0.828125 -2.515625 1.234375q-1.375 0.390625 -2.734375 0.359375zm5.1875 -3.78125l0 -4.015625q-3.65625 -0.453125 -5.796875 0.25q-2.140625 0.703125 -2.140625 2.953125q0 0.96875 0.5625 1.53125q0.5625 0.546875 1.46875 0.734375q0.90625 0.171875 1.96875 0.0625q1.078125 -0.125 2.125 -0.515625q1.046875 -0.40625 1.8125 -1.0zm7.9970703 3.625l-2.421875 0l0 -21.453125l2.421875 0l0 21.453125zm14.715027 0l0.03125 -21.453125l8.1875 0q1.5625 0 2.78125 0.875q1.234375 0.859375 1.9375 2.296875q0.703125 1.421875 0.703125 3.046875q0 1.125 -0.453125 2.21875q-0.4375 1.09375 -1.1875 2.0q-0.75 0.90625 -1.75 1.4375q-0.984375 0.53125 -2.125 0.53125l-5.703125 0l0 9.046875l-2.421875 0zm2.421875 -11.40625l5.640625 0q0.859375 0 1.578125 -0.5625q0.71875 -0.5625 1.15625 -1.453125q0.453125 -0.890625 0.453125 -1.8125q0 -1.046875 -0.421875 -1.921875q-0.40625 -0.875 -1.109375 -1.390625q-0.703125 -0.515625 -1.5625 -0.515625l-5.734375 0l0 7.65625zm13.979248 11.40625l0 -15.140625l2.421875 0l0 1.40625q1.015625 -1.140625 2.5 -1.375q1.484375 -0.25 3.75 0.390625l-1.125 2.15625q-1.390625 -0.5 -2.578125 -0.171875q-1.171875 0.3125 -1.875 1.109375q-0.703125 0.796875 -0.671875 1.71875l0 9.90625l-2.421875 0zm16.704285 0.375q-2.203125 0 -3.875 -0.953125q-1.671875 -0.953125 -2.609375 -2.6875q-0.9375 -1.734375 -0.9375 -4.0625q0 -2.703125 0.984375 -4.5q0.984375 -1.8125 2.65625 -2.734375q1.671875 -0.921875 3.78125 -0.921875q2.1875 0 3.84375 0.921875q1.671875 0.921875 2.625 2.734375q0.953125 1.796875 0.953125 4.5q0 2.328125 -0.953125 4.0625q-0.953125 1.734375 -2.625 2.6875q-1.65625 0.953125 -3.84375 0.953125zm0 -2.34375q1.625 0 2.75 -0.71875q1.140625 -0.71875 1.71875 -1.9375q0.59375 -1.234375 0.59375 -2.703125q0 -2.515625 -1.3125 -4.15625q-1.296875 -1.640625 -3.75 -1.640625q-2.484375 0 -3.765625 1.65625q-1.28125 1.65625 -1.28125 4.140625q0 1.5 0.5625 2.71875q0.5625 1.203125 1.6875 1.921875q1.140625 0.71875 2.796875 0.71875zm12.977722 -15.5625q-0.6875 -0.03125 -1.15625 -0.484375q-0.46875 -0.46875 -0.46875 -1.171875q0 -0.640625 0.46875 -1.109375q0.46875 -0.484375 1.15625 -0.484375q0.671875 0 1.125 0.484375q0.46875 0.46875 0.46875 1.109375q0 0.703125 -0.46875 1.1875q-0.453125 0.46875 -1.125 0.46875zm-5.25 22.921875l0 -2.359375q1.53125 -0.0625 2.40625 -0.46875q0.875 -0.390625 1.234375 -1.296875q0.375 -0.890625 0.375 -2.546875l0 -14.046875l2.390625 0l0 14.046875q0 3.421875 -1.609375 5.03125q-1.609375 1.609375 -4.796875 1.640625zm23.767822 -12.3125l-11.9375 0q0.0625 1.984375 1.078125 3.15625q1.015625 1.15625 2.578125 1.53125q1.5625 0.359375 3.328125 -0.0625q1.78125 -0.4375 3.375 -1.625l1.296875 1.90625q-1.5 1.15625 -3.125 1.71875q-1.625 0.546875 -3.25 0.578125q-3.828125 0.09375 -5.859375 -2.125q-2.015625 -2.234375 -2.015625 -6.21875q0 -3.40625 1.90625 -5.421875q1.921875 -2.03125 5.5625 -2.0q2.390625 0 4.078125 0.984375q1.6875 0.984375 2.484375 2.90625q0.40625 0.953125 0.5 2.125q0.109375 1.15625 0 2.546875zm-6.9375 -6.296875q-2.078125 0 -3.546875 1.09375q-1.453125 1.09375 -1.453125 3.234375l9.75 0q0 -2.015625 -1.28125 -3.171875q-1.265625 -1.15625 -3.46875 -1.15625zm22.32257 11.21875q-1.59375 1.453125 -3.34375 1.9375q-1.75 0.484375 -3.390625 0.15625q-1.640625 -0.3125 -2.96875 -1.359375q-1.328125 -1.0625 -2.140625 -2.703125q-0.796875 -1.640625 -0.796875 -3.78125q0 -2.15625 0.78125 -3.765625q0.796875 -1.609375 2.125 -2.578125q1.328125 -0.984375 2.984375 -1.265625q1.65625 -0.28125 3.421875 0.234375q1.765625 0.5 3.359375 1.875l-1.53125 1.75q-1.359375 -1.15625 -2.875 -1.421875q-1.515625 -0.265625 -2.84375 0.3125q-1.3125 0.5625 -2.140625 1.8125q-0.828125 1.234375 -0.828125 3.046875q0 1.921875 0.84375 3.265625q0.84375 1.328125 2.1875 1.921875q1.359375 0.59375 2.875 0.328125q1.515625 -0.28125 2.84375 -1.59375l1.4375 1.828125zm5.1448364 -4.625l0 -6.4375l-2.671875 0l0 -2.265625l2.671875 0l0 -6.125l2.421875 0l0 6.125l2.703125 0l0 2.265625l-2.703125 0l0 6.4375q0 1.96875 0.140625 2.875q0.140625 0.90625 0.5625 1.15625q0.4375 0.234375 1.265625 0.265625l0.765625 0l0 2.421875l-0.671875 0q-1.421875 0 -2.3125 -0.25q-0.875 -0.265625 -1.359375 -0.96875q-0.46875 -0.71875 -0.640625 -2.03125q-0.171875 -1.3125 -0.171875 -3.46875z" fill-rule="nonzero"/><path fill="#000000" fill-opacity="0.0" d="m200.62993 337.86615l547.874 0l0 57.606293l-547.874 0z" fill-rule="evenodd"/><path fill="#1e1e1e" d="m258.2686 372.8093l0 -12.46875l1.15625 0l4.90625 10.484375l4.890625 -10.484375l1.171875 0l0 12.453125l-1.203125 0l0 -9.625l-4.453125 9.640625l-0.8125 0l-4.4375 -9.640625l0 9.640625l-1.21875 0zm17.236267 0.265625q-1.0625 0 -1.78125 -0.375q-0.703125 -0.390625 -1.0625 -1.015625q-0.359375 -0.640625 -0.359375 -1.390625q0 -0.765625 0.3125 -1.296875q0.3125 -0.546875 0.84375 -0.890625q0.53125 -0.34375 1.234375 -0.53125q0.703125 -0.171875 1.5625 -0.296875q0.875 -0.140625 1.703125 -0.234375q0.828125 -0.109375 1.4375 -0.203125l-0.4375 0.28125q0.015625 -1.390625 -0.546875 -2.046875q-0.5625 -0.671875 -1.953125 -0.671875q-0.96875 0 -1.625 0.4375q-0.65625 0.421875 -0.9375 1.359375l-1.234375 -0.359375q0.328125 -1.265625 1.296875 -1.953125q0.96875 -0.6875 2.515625 -0.6875q1.28125 0 2.171875 0.484375q0.90625 0.46875 1.28125 1.375q0.171875 0.40625 0.21875 0.921875q0.0625 0.5 0.0625 1.015625l0 5.8125l-1.140625 0l0 -2.34375l0.328125 0.140625q-0.484375 1.203125 -1.484375 1.84375q-1.0 0.625 -2.40625 0.625zm0.140625 -1.109375q0.90625 0 1.5625 -0.3125q0.671875 -0.328125 1.078125 -0.875q0.40625 -0.5625 0.53125 -1.265625q0.09375 -0.453125 0.109375 -0.984375q0.015625 -0.546875 0.015625 -0.828125l0.484375 0.25q-0.65625 0.09375 -1.421875 0.1875q-0.75 0.078125 -1.484375 0.203125q-0.734375 0.109375 -1.3125 0.265625q-0.40625 0.109375 -0.78125 0.3125q-0.375 0.203125 -0.609375 0.546875q-0.234375 0.328125 -0.234375 0.828125q0 0.40625 0.203125 0.796875q0.203125 0.375 0.65625 0.625q0.453125 0.25 1.203125 0.25zm6.8133545 0.84375l0 -9.359375l1.140625 0l0 2.25l-0.234375 -0.296875q0.15625 -0.40625 0.40625 -0.75q0.265625 -0.359375 0.546875 -0.578125q0.375 -0.328125 0.859375 -0.5q0.484375 -0.171875 0.96875 -0.203125q0.5 -0.03125 0.90625 0.078125l0 1.203125q-0.515625 -0.140625 -1.125 -0.0625q-0.59375 0.0625 -1.109375 0.484375q-0.46875 0.359375 -0.703125 0.875q-0.234375 0.5 -0.3125 1.078125q-0.078125 0.5625 -0.078125 1.109375l0 4.671875l-1.265625 0zm6.4187317 -11.140625l0 -1.421875l1.265625 0l0 1.421875l-1.265625 0zm0 11.140625l0 -9.359375l1.265625 0l0 9.359375l-1.265625 0zm6.5461426 0.265625q-1.0625 0 -1.78125 -0.375q-0.703125 -0.390625 -1.0625 -1.015625q-0.359375 -0.640625 -0.359375 -1.390625q0 -0.765625 0.3125 -1.296875q0.3125 -0.546875 0.84375 -0.890625q0.53125 -0.34375 1.234375 -0.53125q0.703125 -0.171875 1.5625 -0.296875q0.875 -0.140625 1.703125 -0.234375q0.828125 -0.109375 1.4375 -0.203125l-0.4375 0.28125q0.015625 -1.390625 -0.546875 -2.046875q-0.5625 -0.671875 -1.953125 -0.671875q-0.96875 0 -1.625 0.4375q-0.65625 0.421875 -0.9375 1.359375l-1.234375 -0.359375q0.328125 -1.265625 1.296875 -1.953125q0.96875 -0.6875 2.515625 -0.6875q1.28125 0 2.171875 0.484375q0.90625 0.46875 1.28125 1.375q0.171875 0.40625 0.21875 0.921875q0.0625 0.5 0.0625 1.015625l0 5.8125l-1.140625 0l0 -2.34375l0.328125 0.140625q-0.484375 1.203125 -1.484375 1.84375q-1.0 0.625 -2.40625 0.625zm0.140625 -1.109375q0.90625 0 1.5625 -0.3125q0.671875 -0.328125 1.078125 -0.875q0.40625 -0.5625 0.53125 -1.265625q0.09375 -0.453125 0.109375 -0.984375q0.015625 -0.546875 0.015625 -0.828125l0.484375 0.25q-0.65625 0.09375 -1.421875 0.1875q-0.75 0.078125 -1.484375 0.203125q-0.734375 0.109375 -1.3125 0.265625q-0.40625 0.109375 -0.78125 0.3125q-0.375 0.203125 -0.609375 0.546875q-0.234375 0.328125 -0.234375 0.828125q0 0.40625 0.203125 0.796875q0.203125 0.375 0.65625 0.625q0.453125 0.25 1.203125 0.25zm10.278992 0.84375l0 -12.46875l7.796875 0l0 1.21875l-6.53125 0l0 4.3125l5.484375 0l0 1.21875l-5.484375 0l0 4.5l6.53125 0l0 1.21875l-7.796875 0zm13.361481 0.25q-1.640625 0 -2.703125 -0.703125q-1.0625 -0.71875 -1.3125 -1.984375l1.3125 -0.21875q0.203125 0.796875 0.9375 1.28125q0.75 0.46875 1.84375 0.46875q1.0625 0 1.671875 -0.4375q0.609375 -0.453125 0.609375 -1.234375q0 -0.421875 -0.1875 -0.6875q-0.1875 -0.28125 -0.796875 -0.515625q-0.59375 -0.234375 -1.78125 -0.5625q-1.265625 -0.34375 -2.0 -0.6875q-0.71875 -0.34375 -1.015625 -0.796875q-0.296875 -0.46875 -0.296875 -1.125q0 -0.796875 0.4375 -1.390625q0.453125 -0.609375 1.25 -0.9375q0.796875 -0.328125 1.859375 -0.328125q1.0625 0 1.890625 0.34375q0.84375 0.328125 1.34375 0.953125q0.515625 0.609375 0.609375 1.421875l-1.296875 0.234375q-0.125 -0.828125 -0.8125 -1.296875q-0.6875 -0.484375 -1.75 -0.5q-1.0 -0.03125 -1.625 0.375q-0.625 0.40625 -0.625 1.0625q0 0.375 0.21875 0.640625q0.234375 0.265625 0.828125 0.5q0.59375 0.234375 1.703125 0.515625q1.28125 0.328125 2.015625 0.6875q0.734375 0.359375 1.046875 0.859375q0.3125 0.5 0.3125 1.21875q0 1.328125 -0.984375 2.09375q-0.984375 0.75 -2.703125 0.75zm10.706726 -0.25q-0.796875 0.171875 -1.5625 0.125q-0.765625 -0.03125 -1.375 -0.328125q-0.59375 -0.296875 -0.90625 -0.921875q-0.25 -0.515625 -0.28125 -1.046875q-0.015625 -0.53125 -0.015625 -1.21875l0 -8.5625l1.265625 0l0 8.515625q0 0.59375 0.015625 0.984375q0.015625 0.390625 0.171875 0.6875q0.3125 0.59375 0.984375 0.703125q0.6875 0.109375 1.703125 -0.0625l0 1.125zm-6.140625 -8.265625l0 -1.09375l6.140625 0l0 1.09375l-6.140625 0zm7.986847 8.265625l0 -9.359375l1.140625 0l0 2.25l-0.234375 -0.296875q0.15625 -0.40625 0.40625 -0.75q0.265625 -0.359375 0.546875 -0.578125q0.375 -0.328125 0.859375 -0.5q0.484375 -0.171875 0.96875 -0.203125q0.5 -0.03125 0.90625 0.078125l0 1.203125q-0.515625 -0.140625 -1.125 -0.0625q-0.59375 0.0625 -1.109375 0.484375q-0.46875 0.359375 -0.703125 0.875q-0.234375 0.5 -0.3125 1.078125q-0.078125 0.5625 -0.078125 1.109375l0 4.671875l-1.265625 0zm8.572052 0.265625q-1.0625 0 -1.78125 -0.375q-0.703125 -0.390625 -1.0625 -1.015625q-0.359375 -0.640625 -0.359375 -1.390625q0 -0.765625 0.3125 -1.296875q0.3125 -0.546875 0.84375 -0.890625q0.53125 -0.34375 1.234375 -0.53125q0.703125 -0.171875 1.5625 -0.296875q0.875 -0.140625 1.703125 -0.234375q0.828125 -0.109375 1.4375 -0.203125l-0.4375 0.28125q0.015625 -1.390625 -0.546875 -2.046875q-0.5625 -0.671875 -1.953125 -0.671875q-0.96875 0 -1.625 0.4375q-0.65625 0.421875 -0.9375 1.359375l-1.234375 -0.359375q0.328125 -1.265625 1.296875 -1.953125q0.96875 -0.6875 2.515625 -0.6875q1.28125 0 2.171875 0.484375q0.90625 0.46875 1.28125 1.375q0.171875 0.40625 0.21875 0.921875q0.0625 0.5 0.0625 1.015625l0 5.8125l-1.140625 0l0 -2.34375l0.328125 0.140625q-0.484375 1.203125 -1.484375 1.84375q-1.0 0.625 -2.40625 0.625zm0.140625 -1.109375q0.90625 0 1.5625 -0.3125q0.671875 -0.328125 1.078125 -0.875q0.40625 -0.5625 0.53125 -1.265625q0.09375 -0.453125 0.109375 -0.984375q0.015625 -0.546875 0.015625 -0.828125l0.484375 0.25q-0.65625 0.09375 -1.421875 0.1875q-0.75 0.078125 -1.484375 0.203125q-0.734375 0.109375 -1.3125 0.265625q-0.40625 0.109375 -0.78125 0.3125q-0.375 0.203125 -0.609375 0.546875q-0.234375 0.328125 -0.234375 0.828125q0 0.40625 0.203125 0.796875q0.203125 0.375 0.65625 0.625q0.453125 0.25 1.203125 0.25zm10.4383545 1.109375q-1.3125 0 -2.234375 -0.65625q-0.921875 -0.65625 -1.421875 -1.765625q-0.5 -1.125 -0.5 -2.53125q0 -1.390625 0.484375 -2.5q0.5 -1.125 1.421875 -1.765625q0.921875 -0.65625 2.203125 -0.65625q1.3125 0 2.203125 0.640625q0.90625 0.640625 1.375 1.75q0.46875 1.109375 0.46875 2.53125q0 1.390625 -0.46875 2.515625q-0.453125 1.125 -1.34375 1.78125q-0.890625 0.65625 -2.1875 0.65625zm0.125 -1.1875q1.0 0 1.640625 -0.484375q0.65625 -0.484375 0.96875 -1.34375q0.328125 -0.859375 0.328125 -1.9375q0 -1.09375 -0.328125 -1.9375q-0.3125 -0.859375 -0.953125 -1.328125q-0.640625 -0.484375 -1.625 -0.484375q-1.0 0 -1.671875 0.5q-0.65625 0.5 -0.96875 1.34375q-0.3125 0.84375 -0.3125 1.90625q0 1.0625 0.3125 1.921875q0.328125 0.84375 0.984375 1.34375q0.65625 0.5 1.625 0.5zm2.9375 0.921875l0 -7.046875l-0.140625 0l0 -5.421875l1.28125 0l0 12.46875l-1.140625 0zm6.2513733 0.265625q-1.0625 0 -1.78125 -0.375q-0.703125 -0.390625 -1.0625 -1.015625q-0.359375 -0.640625 -0.359375 -1.390625q0 -0.765625 0.3125 -1.296875q0.3125 -0.546875 0.84375 -0.890625q0.53125 -0.34375 1.234375 -0.53125q0.703125 -0.171875 1.5625 -0.296875q0.875 -0.140625 1.703125 -0.234375q0.828125 -0.109375 1.4375 -0.203125l-0.4375 0.28125q0.015625 -1.390625 -0.546875 -2.046875q-0.5625 -0.671875 -1.953125 -0.671875q-0.96875 0 -1.625 0.4375q-0.65625 0.421875 -0.9375 1.359375l-1.234375 -0.359375q0.328125 -1.265625 1.296875 -1.953125q0.96875 -0.6875 2.515625 -0.6875q1.28125 0 2.171875 0.484375q0.90625 0.46875 1.28125 1.375q0.171875 0.40625 0.21875 0.921875q0.0625 0.5 0.0625 1.015625l0 5.8125l-1.140625 0l0 -2.34375l0.328125 0.140625q-0.484375 1.203125 -1.484375 1.84375q-1.0 0.625 -2.40625 0.625zm0.140625 -1.109375q0.90625 0 1.5625 -0.3125q0.671875 -0.328125 1.078125 -0.875q0.40625 -0.5625 0.53125 -1.265625q0.09375 -0.453125 0.109375 -0.984375q0.015625 -0.546875 0.015625 -0.828125l0.484375 0.25q-0.65625 0.09375 -1.421875 0.1875q-0.75 0.078125 -1.484375 0.203125q-0.734375 0.109375 -1.3125 0.265625q-0.40625 0.109375 -0.78125 0.3125q-0.375 0.203125 -0.609375 0.546875q-0.234375 0.328125 -0.234375 0.828125q0 0.40625 0.203125 0.796875q0.203125 0.375 0.65625 0.625q0.453125 0.25 1.203125 0.25zm6.6414795 2.65625l0.078125 -0.640625q0.34375 0.03125 0.5 -0.140625q0.15625 -0.15625 0.1875 -0.4375q0.03125 -0.265625 0.015625 -0.59375l-0.78125 0l0 -1.828125l1.46875 0l0 2.171875q0 0.796875 -0.40625 1.1875q-0.390625 0.40625 -1.0625 0.28125zm8.410034 -1.8125l0 -12.46875l1.265625 0l0 11.25l5.9375 0l0 1.21875l-7.203125 0zm8.8461 -11.140625l0 -1.421875l1.265625 0l0 1.421875l-1.265625 0zm0 11.140625l0 -9.359375l1.265625 0l0 9.359375l-1.265625 0zm6.5461426 0.265625q-1.0625 0 -1.78125 -0.375q-0.703125 -0.390625 -1.0625 -1.015625q-0.359375 -0.640625 -0.359375 -1.390625q0 -0.765625 0.3125 -1.296875q0.3125 -0.546875 0.84375 -0.890625q0.53125 -0.34375 1.234375 -0.53125q0.703125 -0.171875 1.5625 -0.296875q0.875 -0.140625 1.703125 -0.234375q0.828125 -0.109375 1.4375 -0.203125l-0.4375 0.28125q0.015625 -1.390625 -0.546875 -2.046875q-0.5625 -0.671875 -1.953125 -0.671875q-0.96875 0 -1.625 0.4375q-0.65625 0.421875 -0.9375 1.359375l-1.234375 -0.359375q0.328125 -1.265625 1.296875 -1.953125q0.96875 -0.6875 2.515625 -0.6875q1.28125 0 2.171875 0.484375q0.90625 0.46875 1.28125 1.375q0.171875 0.40625 0.21875 0.921875q0.0625 0.5 0.0625 1.015625l0 5.8125l-1.140625 0l0 -2.34375l0.328125 0.140625q-0.484375 1.203125 -1.484375 1.84375q-1.0 0.625 -2.40625 0.625zm0.140625 -1.109375q0.90625 0 1.5625 -0.3125q0.671875 -0.328125 1.078125 -0.875q0.40625 -0.5625 0.53125 -1.265625q0.09375 -0.453125 0.109375 -0.984375q0.015625 -0.546875 0.015625 -0.828125l0.484375 0.25q-0.65625 0.09375 -1.421875 0.1875q-0.75 0.078125 -1.484375 0.203125q-0.734375 0.109375 -1.3125 0.265625q-0.40625 0.109375 -0.78125 0.3125q-0.375 0.203125 -0.609375 0.546875q-0.234375 0.328125 -0.234375 0.828125q0 0.40625 0.203125 0.796875q0.203125 0.375 0.65625 0.625q0.453125 0.25 1.203125 0.25zm17.969604 0.84375l0 -6.140625q0 -1.078125 -0.609375 -1.703125q-0.59375 -0.625 -1.515625 -0.625q-0.53125 0 -1.03125 0.25q-0.5 0.234375 -0.828125 0.78125q-0.328125 0.53125 -0.328125 1.40625l-0.75 -0.21875q-0.03125 -1.015625 0.390625 -1.765625q0.421875 -0.75 1.15625 -1.171875q0.75 -0.421875 1.6875 -0.421875q1.40625 0 2.25 0.875q0.859375 0.875 0.859375 2.34375l-0.015625 6.390625l-1.265625 0zm-11.171875 0l0 -9.359375l1.140625 0l0 2.3125l0.140625 0l0 7.046875l-1.28125 0zm5.59375 0l0.015625 -6.0625q0 -1.109375 -0.59375 -1.75q-0.59375 -0.65625 -1.5625 -0.65625q-0.96875 0 -1.578125 0.671875q-0.59375 0.65625 -0.59375 1.765625l-0.765625 -0.421875q0 -0.90625 0.421875 -1.609375q0.4375 -0.71875 1.171875 -1.125q0.734375 -0.421875 1.671875 -0.421875q0.890625 0 1.578125 0.390625q0.703125 0.375 1.09375 1.109375q0.40625 0.71875 0.40625 1.765625l0 6.34375l-1.265625 0zm14.706879 0.25q-1.25 0 -2.140625 -0.6875q-0.890625 -0.703125 -1.203125 -1.859375l1.28125 -0.296875q0.140625 0.671875 0.703125 1.15625q0.578125 0.46875 1.34375 0.46875q0.5 0 0.984375 -0.234375q0.5 -0.234375 0.796875 -0.765625q0.1875 -0.375 0.21875 -0.8125q0.03125 -0.4375 0.03125 -1.0625l0 -8.625l1.28125 0l0 8.625q0 0.53125 -0.015625 0.953125q0 0.40625 -0.09375 0.796875q-0.078125 0.390625 -0.296875 0.78125q-0.453125 0.78125 -1.21875 1.171875q-0.75 0.390625 -1.671875 0.390625zm9.812897 0.015625q-1.40625 0 -2.390625 -0.625q-0.984375 -0.640625 -1.515625 -1.75q-0.53125 -1.125 -0.53125 -2.578125q0 -1.46875 0.53125 -2.578125q0.546875 -1.109375 1.53125 -1.71875q1.0 -0.625 2.375 -0.625q1.40625 0 2.390625 0.625q1.0 0.625 1.515625 1.734375q0.53125 1.109375 0.53125 2.5625q0 1.46875 -0.53125 2.59375q-0.53125 1.109375 -1.53125 1.734375q-1.0 0.625 -2.375 0.625zm0 -1.234375q1.5625 0 2.3125 -1.03125q0.765625 -1.03125 0.765625 -2.6875q0 -1.703125 -0.765625 -2.703125q-0.765625 -1.0 -2.3125 -1.0q-1.046875 0 -1.734375 0.46875q-0.671875 0.46875 -1.015625 1.3125q-0.328125 0.828125 -0.328125 1.921875q0 1.6875 0.78125 2.703125q0.78125 1.015625 2.296875 1.015625zm13.093414 0.96875l0 -4.78125q0 -0.765625 -0.15625 -1.421875q-0.140625 -0.65625 -0.46875 -1.140625q-0.3125 -0.5 -0.828125 -0.765625q-0.515625 -0.265625 -1.25 -0.265625q-0.6875 0 -1.203125 0.234375q-0.515625 0.234375 -0.875 0.671875q-0.34375 0.4375 -0.53125 1.0625q-0.171875 0.625 -0.171875 1.421875l-0.90625 -0.203125q0 -1.4375 0.5 -2.421875q0.515625 -0.984375 1.390625 -1.484375q0.890625 -0.5 2.03125 -0.5q0.84375 0 1.46875 0.265625q0.625 0.25 1.0625 0.703125q0.4375 0.4375 0.703125 1.015625q0.28125 0.5625 0.390625 1.203125q0.125 0.625 0.125 1.265625l0 5.140625l-1.28125 0zm-6.765625 0l0 -12.46875l1.15625 0l0 7.03125l0.125 0l0 5.4375l-1.28125 0zm17.058624 0l0 -4.78125q0 -0.765625 -0.15625 -1.421875q-0.140625 -0.65625 -0.46875 -1.140625q-0.3125 -0.5 -0.828125 -0.765625q-0.515625 -0.265625 -1.25 -0.265625q-0.6875 0 -1.203125 0.234375q-0.515625 0.234375 -0.875 0.671875q-0.34375 0.4375 -0.53125 1.0625q-0.171875 0.625 -0.171875 1.421875l-0.90625 -0.203125q0 -1.4375 0.5 -2.421875q0.515625 -0.984375 1.390625 -1.484375q0.890625 -0.5 2.03125 -0.5q0.84375 0 1.46875 0.265625q0.625 0.25 1.0625 0.703125q0.4375 0.4375 0.703125 1.015625q0.28125 0.5625 0.390625 1.203125q0.125 0.625 0.125 1.265625l0 5.140625l-1.28125 0zm-6.765625 0l0 -9.359375l1.15625 0l0 2.3125l0.125 0l0 7.046875l-1.28125 0zm13.792969 0.25q-1.640625 0 -2.703125 -0.703125q-1.0625 -0.71875 -1.3125 -1.984375l1.3125 -0.21875q0.203125 0.796875 0.9375 1.28125q0.75 0.46875 1.84375 0.46875q1.0625 0 1.671875 -0.4375q0.609375 -0.453125 0.609375 -1.234375q0 -0.421875 -0.1875 -0.6875q-0.1875 -0.28125 -0.796875 -0.515625q-0.59375 -0.234375 -1.78125 -0.5625q-1.265625 -0.34375 -2.0 -0.6875q-0.71875 -0.34375 -1.015625 -0.796875q-0.296875 -0.46875 -0.296875 -1.125q0 -0.796875 0.4375 -1.390625q0.453125 -0.609375 1.25 -0.9375q0.796875 -0.328125 1.859375 -0.328125q1.0625 0 1.890625 0.34375q0.84375 0.328125 1.34375 0.953125q0.515625 0.609375 0.609375 1.421875l-1.296875 0.234375q-0.125 -0.828125 -0.8125 -1.296875q-0.6875 -0.484375 -1.75 -0.5q-1.0 -0.03125 -1.625 0.375q-0.625 0.40625 -0.625 1.0625q0 0.375 0.21875 0.640625q0.234375 0.265625 0.828125 0.5q0.59375 0.234375 1.703125 0.515625q1.28125 0.328125 2.015625 0.6875q0.734375 0.359375 1.046875 0.859375q0.3125 0.5 0.3125 1.21875q0 1.328125 -0.984375 2.09375q-0.984375 0.75 -2.703125 0.75zm9.519226 0.015625q-1.40625 0 -2.390625 -0.625q-0.984375 -0.640625 -1.515625 -1.75q-0.53125 -1.125 -0.53125 -2.578125q0 -1.46875 0.53125 -2.578125q0.546875 -1.109375 1.53125 -1.71875q1.0 -0.625 2.375 -0.625q1.40625 0 2.390625 0.625q1.0 0.625 1.515625 1.734375q0.53125 1.109375 0.53125 2.5625q0 1.46875 -0.53125 2.59375q-0.53125 1.109375 -1.53125 1.734375q-1.0 0.625 -2.375 0.625zm0 -1.234375q1.5625 0 2.3125 -1.03125q0.765625 -1.03125 0.765625 -2.6875q0 -1.703125 -0.765625 -2.703125q-0.765625 -1.0 -2.3125 -1.0q-1.046875 0 -1.734375 0.46875q-0.671875 0.46875 -1.015625 1.3125q-0.328125 0.828125 -0.328125 1.921875q0 1.6875 0.78125 2.703125q0.78125 1.015625 2.296875 1.015625zm13.093384 0.96875l0 -4.78125q0 -0.765625 -0.15625 -1.421875q-0.140625 -0.65625 -0.46875 -1.140625q-0.3125 -0.5 -0.828125 -0.765625q-0.515625 -0.265625 -1.25 -0.265625q-0.6875 0 -1.203125 0.234375q-0.515625 0.234375 -0.875 0.671875q-0.34375 0.4375 -0.53125 1.0625q-0.171875 0.625 -0.171875 1.421875l-0.90625 -0.203125q0 -1.4375 0.5 -2.421875q0.515625 -0.984375 1.390625 -1.484375q0.890625 -0.5 2.03125 -0.5q0.84375 0 1.46875 0.265625q0.625 0.25 1.0625 0.703125q0.4375 0.4375 0.703125 1.015625q0.28125 0.5625 0.390625 1.203125q0.125 0.625 0.125 1.265625l0 5.140625l-1.28125 0zm-6.765625 0l0 -9.359375l1.15625 0l0 2.3125l0.125 0l0 7.046875l-1.28125 0zm10.136749 1.8125l0.078125 -0.640625q0.34375 0.03125 0.5 -0.140625q0.15625 -0.15625 0.1875 -0.4375q0.03125 -0.265625 0.015625 -0.59375l-0.78125 0l0 -1.828125l1.46875 0l0 2.171875q0 0.796875 -0.40625 1.1875q-0.390625 0.40625 -1.0625 0.28125zm12.566315 -1.546875q-1.3125 0 -2.359375 -0.4375q-1.03125 -0.4375 -1.71875 -1.25q-0.6875 -0.8125 -0.890625 -1.90625l1.296875 -0.21875q0.3125 1.203125 1.3125 1.890625q1.015625 0.6875 2.40625 0.6875q0.921875 0 1.640625 -0.28125q0.734375 -0.296875 1.140625 -0.828125q0.421875 -0.53125 0.421875 -1.28125q0 -0.484375 -0.171875 -0.8125q-0.171875 -0.34375 -0.453125 -0.5625q-0.28125 -0.234375 -0.625 -0.390625q-0.34375 -0.15625 -0.65625 -0.25l-3.171875 -0.9375q-0.5625 -0.171875 -1.046875 -0.421875q-0.484375 -0.25 -0.84375 -0.609375q-0.359375 -0.375 -0.5625 -0.859375q-0.203125 -0.484375 -0.203125 -1.109375q0 -1.046875 0.546875 -1.8125q0.5625 -0.78125 1.515625 -1.1875q0.96875 -0.421875 2.203125 -0.421875q1.25 0 2.234375 0.453125q0.984375 0.4375 1.625 1.265625q0.640625 0.8125 0.84375 1.921875l-1.328125 0.25q-0.140625 -0.8125 -0.609375 -1.40625q-0.453125 -0.609375 -1.1875 -0.921875q-0.71875 -0.328125 -1.59375 -0.34375q-0.828125 0 -1.484375 0.28125q-0.65625 0.28125 -1.046875 0.765625q-0.375 0.484375 -0.375 1.109375q0 0.640625 0.34375 1.015625q0.359375 0.375 0.875 0.59375q0.515625 0.21875 1.0 0.359375l2.4375 0.71875q0.390625 0.109375 0.90625 0.3125q0.515625 0.1875 1.0 0.546875q0.5 0.359375 0.8125 0.9375q0.328125 0.578125 0.328125 1.46875q0 0.875 -0.34375 1.5625q-0.34375 0.671875 -0.96875 1.140625q-0.625 0.46875 -1.453125 0.71875q-0.8125 0.25 -1.796875 0.25zm10.307861 0q-1.375 0 -2.375 -0.609375q-1.0 -0.609375 -1.5625 -1.703125q-0.546875 -1.109375 -0.546875 -2.59375q0 -1.53125 0.546875 -2.640625q0.546875 -1.125 1.53125 -1.71875q1.0 -0.609375 2.359375 -0.609375q1.375 0 2.359375 0.640625q0.984375 0.625 1.484375 1.8125q0.5 1.1875 0.453125 2.828125l-1.296875 0l0 -0.453125q-0.03125 -1.8125 -0.78125 -2.734375q-0.75 -0.9375 -2.1875 -0.9375q-1.515625 0 -2.3125 0.984375q-0.796875 0.984375 -0.796875 2.796875q0 1.765625 0.796875 2.734375q0.796875 0.96875 2.28125 0.96875q1.0 0 1.75 -0.453125q0.75 -0.46875 1.1875 -1.34375l1.1875 0.46875q-0.5625 1.21875 -1.640625 1.890625q-1.078125 0.671875 -2.4375 0.671875zm-3.578125 -4.59375l0 -1.0625l7.140625 0l0 1.0625l-7.140625 0zm13.331512 4.5625q-0.84375 0 -1.484375 -0.25q-0.625 -0.265625 -1.0625 -0.703125q-0.4375 -0.453125 -0.703125 -1.015625q-0.265625 -0.5625 -0.390625 -1.203125q-0.109375 -0.640625 -0.109375 -1.265625l0 -5.15625l1.28125 0l0 4.78125q0 0.765625 0.140625 1.421875q0.140625 0.65625 0.46875 1.15625q0.328125 0.484375 0.84375 0.75q0.515625 0.265625 1.25 0.265625q0.671875 0 1.1875 -0.234375q0.515625 -0.234375 0.859375 -0.671875q0.359375 -0.4375 0.546875 -1.0625q0.1875 -0.625 0.1875 -1.40625l0.890625 0.1875q0 1.4375 -0.5 2.421875q-0.5 0.984375 -1.390625 1.484375q-0.875 0.5 -2.015625 0.5zm3.140625 -0.234375l0 -2.296875l-0.125 0l0 -7.0625l1.265625 0l0 9.359375l-1.140625 0zm10.32428 0l0 -4.78125q0 -0.765625 -0.15625 -1.421875q-0.140625 -0.65625 -0.46875 -1.140625q-0.3125 -0.5 -0.828125 -0.765625q-0.515625 -0.265625 -1.25 -0.265625q-0.6875 0 -1.203125 0.234375q-0.515625 0.234375 -0.875 0.671875q-0.34375 0.4375 -0.53125 1.0625q-0.171875 0.625 -0.171875 1.421875l-0.90625 -0.203125q0 -1.4375 0.5 -2.421875q0.515625 -0.984375 1.390625 -1.484375q0.890625 -0.5 2.03125 -0.5q0.84375 0 1.46875 0.265625q0.625 0.25 1.0625 0.703125q0.4375 0.4375 0.703125 1.015625q0.28125 0.5625 0.390625 1.203125q0.125 0.625 0.125 1.265625l0 5.140625l-1.28125 0zm-6.765625 0l0 -9.359375l1.15625 0l0 2.3125l0.125 0l0 7.046875l-1.28125 0zm14.027344 4.421875q-0.734375 0 -1.4375 -0.21875q-0.6875 -0.203125 -1.28125 -0.671875q-0.578125 -0.453125 -0.984375 -1.171875l1.15625 -0.640625q0.390625 0.78125 1.09375 1.125q0.703125 0.34375 1.453125 0.34375q1.0 0 1.625 -0.390625q0.640625 -0.375 0.921875 -1.109375q0.28125 -0.734375 0.28125 -1.828125l0 -2.5l0.140625 0l0 -6.71875l1.140625 0l0 9.234375q0 0.390625 -0.03125 0.75q-0.015625 0.375 -0.078125 0.734375q-0.15625 1.046875 -0.671875 1.71875q-0.515625 0.6875 -1.359375 1.015625q-0.828125 0.328125 -1.96875 0.328125zm-0.09375 -4.15625q-1.3125 0 -2.234375 -0.65625q-0.921875 -0.65625 -1.421875 -1.765625q-0.5 -1.125 -0.5 -2.53125q0 -1.390625 0.484375 -2.5q0.5 -1.125 1.421875 -1.765625q0.921875 -0.65625 2.203125 -0.65625q1.3125 0 2.203125 0.640625q0.90625 0.640625 1.375 1.75q0.46875 1.109375 0.46875 2.53125q0 1.390625 -0.46875 2.515625q-0.453125 1.125 -1.34375 1.78125q-0.890625 0.65625 -2.1875 0.65625zm0.125 -1.1875q1.0 0 1.640625 -0.484375q0.65625 -0.484375 0.96875 -1.34375q0.328125 -0.859375 0.328125 -1.9375q0 -1.09375 -0.328125 -1.9375q-0.3125 -0.859375 -0.953125 -1.328125q-0.640625 -0.484375 -1.625 -0.484375q-1.0 0 -1.671875 0.5q-0.65625 0.5 -0.96875 1.34375q-0.3125 0.84375 -0.3125 1.90625q0 1.0625 0.3125 1.921875q0.328125 0.84375 0.984375 1.34375q0.65625 0.5 1.625 0.5zm7.836426 5.078125l1.8125 -4.90625l0.03125 1.453125l-4.109375 -10.0625l1.359375 0l3.359375 8.421875l-0.5625 0l3.109375 -8.421875l1.296875 0l-5.015625 13.515625l-1.28125 0zm11.419006 -3.890625q-1.375 0 -2.375 -0.609375q-1.0 -0.609375 -1.5625 -1.703125q-0.546875 -1.109375 -0.546875 -2.59375q0 -1.53125 0.546875 -2.640625q0.546875 -1.125 1.53125 -1.71875q1.0 -0.609375 2.359375 -0.609375q1.375 0 2.359375 0.640625q0.984375 0.625 1.484375 1.8125q0.5 1.1875 0.453125 2.828125l-1.296875 0l0 -0.453125q-0.03125 -1.8125 -0.78125 -2.734375q-0.75 -0.9375 -2.1875 -0.9375q-1.515625 0 -2.3125 0.984375q-0.796875 0.984375 -0.796875 2.796875q0 1.765625 0.796875 2.734375q0.796875 0.96875 2.28125 0.96875q1.0 0 1.75 -0.453125q0.75 -0.46875 1.1875 -1.34375l1.1875 0.46875q-0.5625 1.21875 -1.640625 1.890625q-1.078125 0.671875 -2.4375 0.671875zm-3.578125 -4.59375l0 -1.0625l7.140625 0l0 1.0625l-7.140625 0zm13.659607 4.59375q-1.40625 0 -2.390625 -0.625q-0.984375 -0.640625 -1.515625 -1.75q-0.53125 -1.125 -0.53125 -2.578125q0 -1.46875 0.53125 -2.578125q0.546875 -1.109375 1.53125 -1.71875q1.0 -0.625 2.375 -0.625q1.40625 0 2.390625 0.625q1.0 0.625 1.515625 1.734375q0.53125 1.109375 0.53125 2.5625q0 1.46875 -0.53125 2.59375q-0.53125 1.109375 -1.53125 1.734375q-1.0 0.625 -2.375 0.625zm0 -1.234375q1.5625 0 2.3125 -1.03125q0.765625 -1.03125 0.765625 -2.6875q0 -1.703125 -0.765625 -2.703125q-0.765625 -1.0 -2.3125 -1.0q-1.046875 0 -1.734375 0.46875q-0.671875 0.46875 -1.015625 1.3125q-0.328125 0.828125 -0.328125 1.921875q0 1.6875 0.78125 2.703125q0.78125 1.015625 2.296875 1.015625zm13.093384 0.96875l0 -4.78125q0 -0.765625 -0.15625 -1.421875q-0.140625 -0.65625 -0.46875 -1.140625q-0.3125 -0.5 -0.828125 -0.765625q-0.515625 -0.265625 -1.25 -0.265625q-0.6875 0 -1.203125 0.234375q-0.515625 0.234375 -0.875 0.671875q-0.34375 0.4375 -0.53125 1.0625q-0.171875 0.625 -0.171875 1.421875l-0.90625 -0.203125q0 -1.4375 0.5 -2.421875q0.515625 -0.984375 1.390625 -1.484375q0.890625 -0.5 2.03125 -0.5q0.84375 0 1.46875 0.265625q0.625 0.25 1.0625 0.703125q0.4375 0.4375 0.703125 1.015625q0.28125 0.5625 0.390625 1.203125q0.125 0.625 0.125 1.265625l0 5.140625l-1.28125 0zm-6.765625 0l0 -9.359375l1.15625 0l0 2.3125l0.125 0l0 7.046875l-1.28125 0zm13.774292 0l0 -12.46875l1.265625 0l0 5.890625l5.6875 -5.890625l1.640625 0l-5.8125 6.015625l6.28125 6.453125l-1.65625 0l-6.140625 -6.234375l0 6.234375l-1.265625 0zm10.456177 -11.140625l0 -1.421875l1.265625 0l0 1.421875l-1.265625 0zm0 11.140625l0 -9.359375l1.265625 0l0 9.359375l-1.265625 0zm15.030518 0l0 -6.140625q0 -1.078125 -0.609375 -1.703125q-0.59375 -0.625 -1.515625 -0.625q-0.53125 0 -1.03125 0.25q-0.5 0.234375 -0.828125 0.78125q-0.328125 0.53125 -0.328125 1.40625l-0.75 -0.21875q-0.03125 -1.015625 0.390625 -1.765625q0.421875 -0.75 1.15625 -1.171875q0.75 -0.421875 1.6875 -0.421875q1.40625 0 2.25 0.875q0.859375 0.875 0.859375 2.34375l-0.015625 6.390625l-1.265625 0zm-11.171875 0l0 -9.359375l1.140625 0l0 2.3125l0.140625 0l0 7.046875l-1.28125 0zm5.59375 0l0.015625 -6.0625q0 -1.109375 -0.59375 -1.75q-0.59375 -0.65625 -1.5625 -0.65625q-0.96875 0 -1.578125 0.671875q-0.59375 0.65625 -0.59375 1.765625l-0.765625 -0.421875q0 -0.90625 0.421875 -1.609375q0.4375 -0.71875 1.171875 -1.125q0.734375 -0.421875 1.671875 -0.421875q0.890625 0 1.578125 0.390625q0.703125 0.375 1.09375 1.109375q0.40625 0.71875 0.40625 1.765625l0 6.34375l-1.265625 0zm8.944336 1.8125l0.078125 -0.640625q0.34375 0.03125 0.5 -0.140625q0.15625 -0.15625 0.1875 -0.4375q0.03125 -0.265625 0.015625 -0.59375l-0.78125 0l0 -1.828125l1.46875 0l0 2.171875q0 0.796875 -0.40625 1.1875q-0.390625 0.40625 -1.0625 0.28125zm8.23822 -1.8125l0 -12.46875l7.796875 0l0 1.21875l-6.53125 0l0 4.3125l5.484375 0l0 1.21875l-5.484375 0l0 4.5l6.53125 0l0 1.21875l-7.796875 0zm12.408325 0l-3.40625 -9.359375l1.296875 0l2.765625 7.703125l2.734375 -7.703125l1.3125 0l-3.390625 9.359375l-1.3125 0zm8.423401 0.265625q-1.0625 0 -1.78125 -0.375q-0.703125 -0.390625 -1.0625 -1.015625q-0.359375 -0.640625 -0.359375 -1.390625q0 -0.765625 0.3125 -1.296875q0.3125 -0.546875 0.84375 -0.890625q0.53125 -0.34375 1.234375 -0.53125q0.703125 -0.171875 1.5625 -0.296875q0.875 -0.140625 1.703125 -0.234375q0.828125 -0.109375 1.4375 -0.203125l-0.4375 0.28125q0.015625 -1.390625 -0.546875 -2.046875q-0.5625 -0.671875 -1.953125 -0.671875q-0.96875 0 -1.625 0.4375q-0.65625 0.421875 -0.9375 1.359375l-1.234375 -0.359375q0.328125 -1.265625 1.296875 -1.953125q0.96875 -0.6875 2.515625 -0.6875q1.28125 0 2.171875 0.484375q0.90625 0.46875 1.28125 1.375q0.171875 0.40625 0.21875 0.921875q0.0625 0.5 0.0625 1.015625l0 5.8125l-1.140625 0l0 -2.34375l0.328125 0.140625q-0.484375 1.203125 -1.484375 1.84375q-1.0 0.625 -2.40625 0.625zm0.140625 -1.109375q0.90625 0 1.5625 -0.3125q0.671875 -0.328125 1.078125 -0.875q0.40625 -0.5625 0.53125 -1.265625q0.09375 -0.453125 0.109375 -0.984375q0.015625 -0.546875 0.015625 -0.828125l0.484375 0.25q-0.65625 0.09375 -1.421875 0.1875q-0.75 0.078125 -1.484375 0.203125q-0.734375 0.109375 -1.3125 0.265625q-0.40625 0.109375 -0.78125 0.3125q-0.375 0.203125 -0.609375 0.546875q-0.234375 0.328125 -0.234375 0.828125q0 0.40625 0.203125 0.796875q0.203125 0.375 0.65625 0.625q0.453125 0.25 1.203125 0.25zm13.5633545 0.84375l0 -4.78125q0 -0.765625 -0.15625 -1.421875q-0.140625 -0.65625 -0.46875 -1.140625q-0.3125 -0.5 -0.828125 -0.765625q-0.515625 -0.265625 -1.25 -0.265625q-0.6875 0 -1.203125 0.234375q-0.515625 0.234375 -0.875 0.671875q-0.34375 0.4375 -0.53125 1.0625q-0.171875 0.625 -0.171875 1.421875l-0.90625 -0.203125q0 -1.4375 0.5 -2.421875q0.515625 -0.984375 1.390625 -1.484375q0.890625 -0.5 2.03125 -0.5q0.84375 0 1.46875 0.265625q0.625 0.25 1.0625 0.703125q0.4375 0.4375 0.703125 1.015625q0.28125 0.5625 0.390625 1.203125q0.125 0.625 0.125 1.265625l0 5.140625l-1.28125 0zm-6.765625 0l0 -9.359375l1.15625 0l0 2.3125l0.125 0l0 7.046875l-1.28125 0zm13.946106 0l0 -12.46875l1.265625 0l0 11.25l5.9375 0l0 1.21875l-7.203125 0zm8.846069 -11.140625l0 -1.421875l1.265625 0l0 1.421875l-1.265625 0zm0 11.140625l0 -9.359375l1.265625 0l0 9.359375l-1.265625 0zm15.030518 0l0 -6.140625q0 -1.078125 -0.609375 -1.703125q-0.59375 -0.625 -1.515625 -0.625q-0.53125 0 -1.03125 0.25q-0.5 0.234375 -0.828125 0.78125q-0.328125 0.53125 -0.328125 1.40625l-0.75 -0.21875q-0.03125 -1.015625 0.390625 -1.765625q0.421875 -0.75 1.15625 -1.171875q0.75 -0.421875 1.6875 -0.421875q1.40625 0 2.25 0.875q0.859375 0.875 0.859375 2.34375l-0.015625 6.390625l-1.265625 0zm-11.171875 0l0 -9.359375l1.140625 0l0 2.3125l0.140625 0l0 7.046875l-1.28125 0zm5.59375 0l0.015625 -6.0625q0 -1.109375 -0.59375 -1.75q-0.59375 -0.65625 -1.5625 -0.65625q-0.96875 0 -1.578125 0.671875q-0.59375 0.65625 -0.59375 1.765625l-0.765625 -0.421875q0 -0.90625 0.421875 -1.609375q0.4375 -0.71875 1.171875 -1.125q0.734375 -0.421875 1.671875 -0.421875q0.890625 0 1.578125 0.390625q0.703125 0.375 1.09375 1.109375q0.40625 0.71875 0.40625 1.765625l0 6.34375l-1.265625 0z" fill-rule="nonzero"/></g></svg>